<svg width="279" height="12" viewBox="0 0 279 12" fill="none" xmlns="http://www.w3.org/2000/svg">
<path d="M118 6L113 3.11325L113 8.88675L118 6ZM113.5 5.5L7.67311e-06 5.49999L7.58568e-06 6.49999L113.5 6.5L113.5 5.5Z" fill="#8898AA"/>
<path d="M137.443 9.14C137.036 9.14 136.666 9.06 136.333 8.9C136 8.74 135.713 8.51333 135.473 8.22C135.24 7.92667 135.06 7.57 134.933 7.15C134.806 6.73 134.743 6.26 134.743 5.74C134.743 5 134.86 4.37333 135.093 3.86C135.326 3.34 135.646 2.94667 136.053 2.68C136.466 2.40667 136.936 2.27 137.463 2.27C138.016 2.27 138.493 2.41 138.893 2.69C139.293 2.97 139.6 3.37 139.813 3.89C140.033 4.40333 140.143 5.01333 140.143 5.72C140.143 6.24 140.08 6.71333 139.953 7.14C139.826 7.56 139.643 7.92 139.403 8.22C139.163 8.51333 138.876 8.74 138.543 8.9C138.216 9.06 137.85 9.14 137.443 9.14ZM137.453 8.23C137.673 8.23 137.88 8.18 138.073 8.08C138.266 7.98 138.436 7.83 138.583 7.63C138.73 7.42333 138.843 7.16333 138.923 6.85C139.01 6.53 139.053 6.15333 139.053 5.72C139.053 5.18667 138.986 4.73 138.853 4.35C138.72 3.97 138.533 3.68 138.293 3.48C138.053 3.27333 137.773 3.17 137.453 3.17C137.18 3.17 136.916 3.25667 136.663 3.43C136.416 3.59667 136.216 3.86667 136.063 4.24C135.91 4.60667 135.833 5.09333 135.833 5.7C135.833 6.12667 135.873 6.5 135.953 6.82C136.033 7.13333 136.146 7.39667 136.293 7.61C136.44 7.81667 136.61 7.97333 136.803 8.08C137.003 8.18 137.22 8.23 137.453 8.23ZM141.476 9V6.29V3.8H142.416L142.366 5.6H142.536C142.596 5.19333 142.689 4.84667 142.816 4.56C142.942 4.27333 143.116 4.05667 143.336 3.91C143.556 3.75667 143.829 3.68 144.156 3.68C144.222 3.68 144.296 3.68333 144.376 3.69C144.456 3.69667 144.546 3.71667 144.646 3.75L144.596 4.89C144.496 4.85 144.392 4.82333 144.286 4.81C144.179 4.79 144.082 4.78 143.996 4.78C143.729 4.78 143.502 4.85667 143.316 5.01C143.129 5.15667 142.972 5.36333 142.846 5.63C142.726 5.89 142.632 6.19333 142.566 6.54V9H141.476Z" fill="#8898AA"/>
<path d="M161 6L166 8.88675V3.11325L161 6ZM165.5 6.5H279V5.5H165.5V6.5Z" fill="#8898AA"/>
</svg>
