<svg width="16" height="16" viewBox="0 0 16 16" fill="none" xmlns="http://www.w3.org/2000/svg">
<path fill-rule="evenodd" clip-rule="evenodd" d="M7.99992 6.83333C8.27606 6.83333 8.49992 7.05719 8.49992 7.33333V8.16667H9.33325C9.6094 8.16667 9.83325 8.39052 9.83325 8.66667C9.83325 8.94281 9.6094 9.16667 9.33325 9.16667H8.49992V10C8.49992 10.2761 8.27606 10.5 7.99992 10.5C7.72378 10.5 7.49992 10.2761 7.49992 10V9.16667H6.66659C6.39044 9.16667 6.16659 8.94281 6.16659 8.66667C6.16659 8.39052 6.39044 8.16667 6.66659 8.16667H7.49992V7.33333C7.49992 7.05719 7.72378 6.83333 7.99992 6.83333Z" fill="white"/>
<path fill-rule="evenodd" clip-rule="evenodd" d="M6.51844 14H9.4814C11.5621 14 12.6024 14 13.3498 13.5097C13.6733 13.2975 13.9511 13.0248 14.1672 12.7071C14.6666 11.9734 14.6666 10.9519 14.6666 8.90909C14.6666 6.86624 14.6666 5.84481 14.1672 5.11107C13.9511 4.79342 13.6733 4.5207 13.3498 4.30845C12.8696 3.99342 12.2684 3.88082 11.3479 3.84057C10.9087 3.84057 10.5305 3.51379 10.4444 3.09091C10.3152 2.45659 9.74788 2 9.08903 2H6.91081C6.25195 2 5.68469 2.45659 5.55547 3.09091C5.46933 3.51379 5.09115 3.84057 4.65192 3.84057C3.73148 3.88082 3.13029 3.99342 2.65008 4.30845C2.32655 4.5207 2.04877 4.79342 1.8326 5.11107C1.33325 5.84481 1.33325 6.86624 1.33325 8.90909C1.33325 10.9519 1.33325 11.9734 1.8326 12.7071C2.04877 13.0248 2.32655 13.2975 2.65008 13.5097C3.39741 14 4.43775 14 6.51844 14ZM10.6666 8.66667C10.6666 10.1394 9.47268 11.3333 7.99992 11.3333C6.52716 11.3333 5.33325 10.1394 5.33325 8.66667C5.33325 7.19391 6.52716 6 7.99992 6C9.47268 6 10.6666 7.19391 10.6666 8.66667ZM11.9999 6.16667C11.7238 6.16667 11.4999 6.39052 11.4999 6.66667C11.4999 6.94281 11.7238 7.16667 11.9999 7.16667H12.6666C12.9427 7.16667 13.1666 6.94281 13.1666 6.66667C13.1666 6.39052 12.9427 6.16667 12.6666 6.16667H11.9999Z" fill="white"/>
</svg>
